<mxfile host="app.diagrams.net" modified="2022-07-04T17:25:16.917Z" agent="5.0 (Macintosh; Intel Mac OS X 10_15_7) AppleWebKit/605.1.15 (KHTML, like Gecko) Version/15.4 Safari/605.1.15" etag="JgJPI5ySvX0Ahz1W-MhI" version="20.0.4" type="github">
  <diagram name="Page-1" id="f1b7ffb7-ca1e-a977-7cf5-a751b3c06c05">
    <mxGraphModel dx="930" dy="779" grid="1" gridSize="10" guides="1" tooltips="1" connect="1" arrows="1" fold="1" page="1" pageScale="1" pageWidth="826" pageHeight="1169" background="none" math="0" shadow="0">
      <root>
        <mxCell id="0" />
        <mxCell id="1" parent="0" />
        <mxCell id="JPSK89S25n1LUuH9_Zfj-99" value="" style="rounded=0;whiteSpace=wrap;html=1;labelBackgroundColor=#E6E6E6;fontSize=23;fontColor=none;" vertex="1" parent="1">
          <mxGeometry y="920" width="820" height="249" as="geometry" />
        </mxCell>
        <mxCell id="JPSK89S25n1LUuH9_Zfj-73" value="" style="rounded=0;whiteSpace=wrap;html=1;fontSize=8;" vertex="1" parent="1">
          <mxGeometry x="465" y="245" width="340" height="250" as="geometry" />
        </mxCell>
        <mxCell id="JPSK89S25n1LUuH9_Zfj-61" value="" style="rounded=0;whiteSpace=wrap;html=1;fontSize=18;" vertex="1" parent="1">
          <mxGeometry width="820" height="70" as="geometry" />
        </mxCell>
        <mxCell id="JPSK89S25n1LUuH9_Zfj-62" value="Website Name" style="text;spacingTop=-5;fontSize=22;fontStyle=0" vertex="1" parent="1">
          <mxGeometry x="20" y="20" width="150" height="30" as="geometry" />
        </mxCell>
        <mxCell id="JPSK89S25n1LUuH9_Zfj-63" value="Browse" style="text;spacingTop=-5;" vertex="1" parent="1">
          <mxGeometry x="570" y="25.000000000000085" width="30" height="20" as="geometry" />
        </mxCell>
        <mxCell id="JPSK89S25n1LUuH9_Zfj-64" value="&lt;font style=&quot;font-size: 14px;&quot;&gt;search bar&lt;/font&gt;" style="rounded=0;whiteSpace=wrap;html=1;fontSize=25;verticalAlign=bottom;" vertex="1" parent="1">
          <mxGeometry x="190" y="20" width="350" height="30" as="geometry" />
        </mxCell>
        <mxCell id="JPSK89S25n1LUuH9_Zfj-65" value="SELL" style="rounded=1;whiteSpace=wrap;html=1;fontSize=18;arcSize=28;" vertex="1" parent="1">
          <mxGeometry x="740" y="15" width="70" height="40" as="geometry" />
        </mxCell>
        <mxCell id="JPSK89S25n1LUuH9_Zfj-66" value="Help" style="text;spacingTop=-5;" vertex="1" parent="1">
          <mxGeometry x="620" y="25.000000000000085" width="30" height="20" as="geometry" />
        </mxCell>
        <mxCell id="JPSK89S25n1LUuH9_Zfj-67" value="My Account" style="text;spacingTop=-5;" vertex="1" parent="1">
          <mxGeometry x="660" y="25.000000000000085" width="30" height="20" as="geometry" />
        </mxCell>
        <mxCell id="JPSK89S25n1LUuH9_Zfj-68" value="Home  /  Game Console  /  SONY  /  PlayStation 5 " style="text;spacingTop=-5;" vertex="1" parent="1">
          <mxGeometry x="20" y="80" width="30" height="20" as="geometry" />
        </mxCell>
        <mxCell id="JPSK89S25n1LUuH9_Zfj-70" value="" style="endArrow=none;html=1;rounded=0;" edge="1" parent="1">
          <mxGeometry width="50" height="50" relative="1" as="geometry">
            <mxPoint x="220" y="100" as="sourcePoint" />
            <mxPoint x="290" y="100" as="targetPoint" />
          </mxGeometry>
        </mxCell>
        <mxCell id="JPSK89S25n1LUuH9_Zfj-71" value="PlayStation 5" style="text;spacingTop=-5;fontSize=34;fontStyle=0" vertex="1" parent="1">
          <mxGeometry x="20" y="110" width="230" height="50" as="geometry" />
        </mxCell>
        <mxCell id="JPSK89S25n1LUuH9_Zfj-75" value="Recent Transaction" style="text;spacingTop=-5;fontSize=18;" vertex="1" parent="1">
          <mxGeometry x="20" y="600" width="30" height="20" as="geometry" />
        </mxCell>
        <mxCell id="JPSK89S25n1LUuH9_Zfj-78" value="" style="group" vertex="1" connectable="0" parent="1">
          <mxGeometry x="20" y="160" width="420" height="420" as="geometry" />
        </mxCell>
        <mxCell id="JPSK89S25n1LUuH9_Zfj-74" value="" style="verticalLabelPosition=bottom;verticalAlign=top;strokeWidth=1;shape=mxgraph.mockup.graphics.iconGrid;strokeColor=#CCCCCC;gridSize=1,1;" vertex="1" parent="JPSK89S25n1LUuH9_Zfj-78">
          <mxGeometry width="419.9999999999999" height="419.9999999999999" as="geometry" />
        </mxCell>
        <mxCell id="JPSK89S25n1LUuH9_Zfj-77" value="PHOTO" style="text;spacingTop=-5;align=center;verticalAlign=middle;fontSize=36;fontColor=#CCCCCC" vertex="1" parent="JPSK89S25n1LUuH9_Zfj-78">
          <mxGeometry width="419.9999999999999" height="419.9999999999999" as="geometry" />
        </mxCell>
        <mxCell id="JPSK89S25n1LUuH9_Zfj-80" value="" style="group" vertex="1" connectable="0" parent="1">
          <mxGeometry x="670" y="330" width="120" height="65" as="geometry" />
        </mxCell>
        <mxCell id="JPSK89S25n1LUuH9_Zfj-79" value="" style="rounded=0;whiteSpace=wrap;html=1;fontSize=34;" vertex="1" parent="JPSK89S25n1LUuH9_Zfj-80">
          <mxGeometry width="120" height="65" as="geometry" />
        </mxCell>
        <mxCell id="JPSK89S25n1LUuH9_Zfj-76" value="Buy for HK$ XXXX" style="text;spacingTop=-5;whiteSpace=wrap;align=left;fontSize=22;" vertex="1" parent="JPSK89S25n1LUuH9_Zfj-80">
          <mxGeometry x="5" y="5" width="110" height="60" as="geometry" />
        </mxCell>
        <mxCell id="JPSK89S25n1LUuH9_Zfj-81" value="" style="group" vertex="1" connectable="0" parent="1">
          <mxGeometry x="490" y="330" width="120" height="65" as="geometry" />
        </mxCell>
        <mxCell id="JPSK89S25n1LUuH9_Zfj-82" value="" style="rounded=0;whiteSpace=wrap;html=1;fontSize=34;" vertex="1" parent="JPSK89S25n1LUuH9_Zfj-81">
          <mxGeometry width="120" height="65" as="geometry" />
        </mxCell>
        <mxCell id="JPSK89S25n1LUuH9_Zfj-83" value="Place Bid" style="text;spacingTop=-5;whiteSpace=wrap;align=center;fontSize=22;verticalAlign=middle;" vertex="1" parent="JPSK89S25n1LUuH9_Zfj-81">
          <mxGeometry x="5" width="115" height="65" as="geometry" />
        </mxCell>
        <mxCell id="JPSK89S25n1LUuH9_Zfj-86" value="" style="rounded=0;whiteSpace=wrap;html=1;fontSize=34;" vertex="1" parent="1">
          <mxGeometry x="490" y="270" width="300" height="40" as="geometry" />
        </mxCell>
        <mxCell id="JPSK89S25n1LUuH9_Zfj-90" value="Condition : Brand New" style="text;spacingTop=-5;fontSize=18;fontStyle=0" vertex="1" parent="1">
          <mxGeometry x="500" y="280" width="70" height="20" as="geometry" />
        </mxCell>
        <mxCell id="JPSK89S25n1LUuH9_Zfj-91" value="" style="endArrow=none;html=1;rounded=0;fontSize=18;" edge="1" parent="1">
          <mxGeometry width="50" height="50" relative="1" as="geometry">
            <mxPoint x="20" y="650" as="sourcePoint" />
            <mxPoint x="440" y="650" as="targetPoint" />
          </mxGeometry>
        </mxCell>
        <mxCell id="JPSK89S25n1LUuH9_Zfj-92" value="Date" style="text;spacingTop=-5;" vertex="1" parent="1">
          <mxGeometry x="20" y="630" width="30" height="20" as="geometry" />
        </mxCell>
        <mxCell id="JPSK89S25n1LUuH9_Zfj-93" value="Condition" style="text;spacingTop=-5;" vertex="1" parent="1">
          <mxGeometry x="120" y="630" width="30" height="20" as="geometry" />
        </mxCell>
        <mxCell id="JPSK89S25n1LUuH9_Zfj-94" value="Price" style="text;spacingTop=-5;" vertex="1" parent="1">
          <mxGeometry x="215" y="630" width="30" height="20" as="geometry" />
        </mxCell>
        <mxCell id="JPSK89S25n1LUuH9_Zfj-95" value="Shipped / Delivery In Person" style="text;spacingTop=-5;" vertex="1" parent="1">
          <mxGeometry x="280" y="630" width="30" height="20" as="geometry" />
        </mxCell>
        <mxCell id="JPSK89S25n1LUuH9_Zfj-98" value="FOOTER" style="text;spacingTop=-5;align=center;verticalAlign=middle;fontSize=36;fontColor=#CCCCCC" vertex="1" parent="1">
          <mxGeometry y="919" width="820" height="250" as="geometry" />
        </mxCell>
        <mxCell id="JPSK89S25n1LUuH9_Zfj-100" value="Asks" style="text;spacingTop=-5;fontSize=18;" vertex="1" parent="1">
          <mxGeometry x="465" y="600" width="30" height="20" as="geometry" />
        </mxCell>
        <mxCell id="JPSK89S25n1LUuH9_Zfj-101" value="Bids" style="text;spacingTop=-5;fontSize=18;" vertex="1" parent="1">
          <mxGeometry x="640" y="600" width="30" height="20" as="geometry" />
        </mxCell>
        <mxCell id="JPSK89S25n1LUuH9_Zfj-102" value="" style="endArrow=none;html=1;rounded=0;fontSize=18;" edge="1" parent="1">
          <mxGeometry width="50" height="50" relative="1" as="geometry">
            <mxPoint x="465" y="649" as="sourcePoint" />
            <mxPoint x="630" y="650" as="targetPoint" />
          </mxGeometry>
        </mxCell>
        <mxCell id="JPSK89S25n1LUuH9_Zfj-103" value="" style="endArrow=none;html=1;rounded=0;fontSize=18;" edge="1" parent="1">
          <mxGeometry width="50" height="50" relative="1" as="geometry">
            <mxPoint x="640" y="649" as="sourcePoint" />
            <mxPoint x="805" y="650" as="targetPoint" />
          </mxGeometry>
        </mxCell>
        <mxCell id="JPSK89S25n1LUuH9_Zfj-104" value="Condition" style="text;spacingTop=-5;" vertex="1" parent="1">
          <mxGeometry x="465" y="630" width="30" height="20" as="geometry" />
        </mxCell>
        <mxCell id="JPSK89S25n1LUuH9_Zfj-105" value="Condition" style="text;spacingTop=-5;" vertex="1" parent="1">
          <mxGeometry x="640" y="630" width="30" height="20" as="geometry" />
        </mxCell>
        <mxCell id="JPSK89S25n1LUuH9_Zfj-106" value="Price" style="text;spacingTop=-5;" vertex="1" parent="1">
          <mxGeometry x="560" y="630" width="30" height="20" as="geometry" />
        </mxCell>
        <mxCell id="JPSK89S25n1LUuH9_Zfj-107" value="Price" style="text;spacingTop=-5;" vertex="1" parent="1">
          <mxGeometry x="740" y="630" width="30" height="20" as="geometry" />
        </mxCell>
        <mxCell id="JPSK89S25n1LUuH9_Zfj-108" value="Product Details" style="text;spacingTop=-5;fontSize=18;" vertex="1" parent="1">
          <mxGeometry x="20" y="800" width="30" height="20" as="geometry" />
        </mxCell>
        <mxCell id="JPSK89S25n1LUuH9_Zfj-111" value="" style="endArrow=none;html=1;rounded=0;fontSize=18;" edge="1" parent="1">
          <mxGeometry width="50" height="50" relative="1" as="geometry">
            <mxPoint x="20" y="830" as="sourcePoint" />
            <mxPoint x="800" y="830" as="targetPoint" />
          </mxGeometry>
        </mxCell>
        <mxCell id="JPSK89S25n1LUuH9_Zfj-114" value="LIKE" style="strokeWidth=1;shadow=0;dashed=0;align=center;html=1;shape=mxgraph.mockup.buttons.button;strokeColor=#666666;fontColor=#ffffff;mainText=;buttonStyle=round;fontSize=12;fontStyle=0;fillColor=#008cff;whiteSpace=wrap;" vertex="1" parent="1">
          <mxGeometry x="715" y="115" width="40" height="40" as="geometry" />
        </mxCell>
        <mxCell id="JPSK89S25n1LUuH9_Zfj-115" value="SHARE" style="strokeWidth=1;shadow=0;dashed=0;align=center;html=1;shape=mxgraph.mockup.buttons.button;strokeColor=#666666;fontColor=#ffffff;mainText=;buttonStyle=round;fontSize=10;fontStyle=0;fillColor=#008cff;whiteSpace=wrap;" vertex="1" parent="1">
          <mxGeometry x="765" y="115" width="40" height="40" as="geometry" />
        </mxCell>
      </root>
    </mxGraphModel>
  </diagram>
</mxfile>
